<svg width="30" height="30" viewBox="0 0 30 30" fill="none" xmlns="http://www.w3.org/2000/svg">
<path d="M15 30C6.71573 30 0 23.2843 0 15C0 6.71573 6.71573 0 15 0V30ZM16.3633 0.0615234C17.06 0.124296 17.7432 0.233893 18.4092 0.388672V29.6104C17.7431 29.7652 17.0601 29.8747 16.3633 29.9375V0.0615234ZM19.7725 0.775391C20.7282 1.09592 21.641 1.50995 22.5 2.00684V27.9922C21.641 28.4891 20.7283 28.9031 19.7725 29.2236V0.775391ZM23.8633 2.89746C24.8766 3.64085 25.7935 4.50817 26.5908 5.47754V24.5215C25.7935 25.4909 24.8767 26.3581 23.8633 27.1016V2.89746ZM27.9541 7.43359C29.2543 9.65489 30 12.2403 30 15C30 17.7594 29.2541 20.3443 27.9541 22.5654V7.43359Z" fill="#040606"/>
</svg>
